<mxfile host="app.diagrams.net" modified="2022-05-07T13:38:28.631Z" agent="5.0 (Macintosh; Intel Mac OS X 10_15_7) AppleWebKit/537.36 (KHTML, like Gecko) Chrome/101.0.4951.54 Safari/537.36" etag="vL7-V4hGz1jU02V099nG" version="18.0.1" type="github">
  <diagram id="H9yfTQG-n4DIDoUUmoth" name="第 1 页">
    <mxGraphModel dx="876" dy="643" grid="1" gridSize="10" guides="1" tooltips="1" connect="1" arrows="1" fold="1" page="1" pageScale="1" pageWidth="827" pageHeight="1169" math="0" shadow="0">
      <root>
        <mxCell id="0" />
        <mxCell id="1" parent="0" />
        <mxCell id="K4j7y90kipUORQspIOcj-14" style="edgeStyle=orthogonalEdgeStyle;rounded=0;orthogonalLoop=1;jettySize=auto;html=1;exitX=1;exitY=0.5;exitDx=0;exitDy=0;exitPerimeter=0;fontSize=24;strokeWidth=2;" edge="1" parent="1" source="K4j7y90kipUORQspIOcj-1">
          <mxGeometry relative="1" as="geometry">
            <mxPoint x="350" y="336" as="targetPoint" />
          </mxGeometry>
        </mxCell>
        <mxCell id="K4j7y90kipUORQspIOcj-20" style="edgeStyle=orthogonalEdgeStyle;rounded=0;orthogonalLoop=1;jettySize=auto;html=1;exitX=1;exitY=0.5;exitDx=0;exitDy=0;fontSize=24;strokeWidth=2;entryX=0;entryY=0.5;entryDx=0;entryDy=0;" edge="1" parent="1" source="K4j7y90kipUORQspIOcj-6" target="K4j7y90kipUORQspIOcj-16">
          <mxGeometry relative="1" as="geometry">
            <mxPoint x="500" y="183" as="targetPoint" />
          </mxGeometry>
        </mxCell>
        <mxCell id="K4j7y90kipUORQspIOcj-6" value="0" style="rounded=0;whiteSpace=wrap;html=1;sketch=0;fontSize=24;fillColor=#6a00ff;fontColor=#ffffff;strokeColor=#3700CC;" vertex="1" parent="1">
          <mxGeometry x="390" y="153" width="76" height="60" as="geometry" />
        </mxCell>
        <mxCell id="K4j7y90kipUORQspIOcj-7" value="1" style="rounded=0;whiteSpace=wrap;html=1;sketch=0;fontSize=24;fillColor=#6a00ff;fontColor=#ffffff;strokeColor=#3700CC;" vertex="1" parent="1">
          <mxGeometry x="390" y="213" width="76" height="60" as="geometry" />
        </mxCell>
        <mxCell id="K4j7y90kipUORQspIOcj-33" style="edgeStyle=orthogonalEdgeStyle;rounded=0;orthogonalLoop=1;jettySize=auto;html=1;exitX=1;exitY=0.5;exitDx=0;exitDy=0;fontSize=24;strokeWidth=2;" edge="1" parent="1" source="K4j7y90kipUORQspIOcj-8">
          <mxGeometry relative="1" as="geometry">
            <mxPoint x="510" y="303" as="targetPoint" />
            <Array as="points">
              <mxPoint x="510" y="303" />
              <mxPoint x="510" y="303" />
            </Array>
          </mxGeometry>
        </mxCell>
        <mxCell id="K4j7y90kipUORQspIOcj-8" value="2" style="rounded=0;whiteSpace=wrap;html=1;sketch=0;fontSize=24;fillColor=#6a00ff;fontColor=#ffffff;strokeColor=#3700CC;" vertex="1" parent="1">
          <mxGeometry x="390" y="273" width="76" height="60" as="geometry" />
        </mxCell>
        <mxCell id="K4j7y90kipUORQspIOcj-9" value="3" style="rounded=0;whiteSpace=wrap;html=1;sketch=0;fontSize=24;fillColor=#6a00ff;fontColor=#ffffff;strokeColor=#3700CC;" vertex="1" parent="1">
          <mxGeometry x="390" y="333" width="76" height="60" as="geometry" />
        </mxCell>
        <mxCell id="K4j7y90kipUORQspIOcj-10" value="4" style="rounded=0;whiteSpace=wrap;html=1;sketch=0;fontSize=24;fillColor=#6a00ff;fontColor=#ffffff;strokeColor=#3700CC;" vertex="1" parent="1">
          <mxGeometry x="390" y="393" width="76" height="60" as="geometry" />
        </mxCell>
        <mxCell id="K4j7y90kipUORQspIOcj-38" style="edgeStyle=orthogonalEdgeStyle;rounded=0;orthogonalLoop=1;jettySize=auto;html=1;fontSize=24;strokeWidth=2;" edge="1" parent="1" source="K4j7y90kipUORQspIOcj-11">
          <mxGeometry relative="1" as="geometry">
            <mxPoint x="510" y="483" as="targetPoint" />
          </mxGeometry>
        </mxCell>
        <mxCell id="K4j7y90kipUORQspIOcj-11" value="5" style="rounded=0;whiteSpace=wrap;html=1;sketch=0;fontSize=24;fillColor=#6a00ff;fontColor=#ffffff;strokeColor=#3700CC;" vertex="1" parent="1">
          <mxGeometry x="390" y="453" width="76" height="60" as="geometry" />
        </mxCell>
        <mxCell id="K4j7y90kipUORQspIOcj-12" value="" style="shape=curlyBracket;whiteSpace=wrap;html=1;rounded=1;sketch=0;fontSize=24;strokeWidth=2;" vertex="1" parent="1">
          <mxGeometry x="351" y="156" width="20" height="358" as="geometry" />
        </mxCell>
        <mxCell id="K4j7y90kipUORQspIOcj-15" value="" style="group" vertex="1" connectable="0" parent="1">
          <mxGeometry x="60" y="300" width="239" height="72" as="geometry" />
        </mxCell>
        <mxCell id="K4j7y90kipUORQspIOcj-1" value="" style="outlineConnect=0;dashed=0;verticalLabelPosition=bottom;verticalAlign=top;align=center;html=1;shape=mxgraph.aws3.lambda_function;fillColor=#F58534;gradientColor=none;" vertex="1" parent="K4j7y90kipUORQspIOcj-15">
          <mxGeometry x="170" width="69" height="72" as="geometry" />
        </mxCell>
        <mxCell id="K4j7y90kipUORQspIOcj-5" style="edgeStyle=orthogonalEdgeStyle;rounded=0;orthogonalLoop=1;jettySize=auto;html=1;entryX=0;entryY=0.5;entryDx=0;entryDy=0;entryPerimeter=0;fontSize=24;strokeWidth=2;" edge="1" parent="K4j7y90kipUORQspIOcj-15" source="K4j7y90kipUORQspIOcj-4" target="K4j7y90kipUORQspIOcj-1">
          <mxGeometry relative="1" as="geometry" />
        </mxCell>
        <mxCell id="K4j7y90kipUORQspIOcj-4" value="&lt;font style=&quot;font-size: 24px;&quot;&gt;KEY&lt;/font&gt;" style="rounded=0;whiteSpace=wrap;html=1;sketch=1;" vertex="1" parent="K4j7y90kipUORQspIOcj-15">
          <mxGeometry y="15" width="90" height="42" as="geometry" />
        </mxCell>
        <mxCell id="K4j7y90kipUORQspIOcj-24" value="" style="group" vertex="1" connectable="0" parent="1">
          <mxGeometry x="510" y="158" width="240" height="50" as="geometry" />
        </mxCell>
        <mxCell id="K4j7y90kipUORQspIOcj-16" value="v1" style="rounded=1;whiteSpace=wrap;html=1;sketch=0;fontSize=24;strokeWidth=2;" vertex="1" parent="K4j7y90kipUORQspIOcj-24">
          <mxGeometry x="2" width="100" height="50" as="geometry" />
        </mxCell>
        <mxCell id="K4j7y90kipUORQspIOcj-17" value="v2" style="rounded=1;whiteSpace=wrap;html=1;sketch=0;fontSize=24;strokeWidth=2;" vertex="1" parent="K4j7y90kipUORQspIOcj-24">
          <mxGeometry x="140" width="100" height="50" as="geometry" />
        </mxCell>
        <mxCell id="K4j7y90kipUORQspIOcj-21" style="edgeStyle=orthogonalEdgeStyle;rounded=0;orthogonalLoop=1;jettySize=auto;html=1;entryX=0;entryY=0.5;entryDx=0;entryDy=0;fontSize=24;strokeWidth=2;" edge="1" parent="K4j7y90kipUORQspIOcj-24" source="K4j7y90kipUORQspIOcj-16" target="K4j7y90kipUORQspIOcj-17">
          <mxGeometry relative="1" as="geometry" />
        </mxCell>
        <mxCell id="K4j7y90kipUORQspIOcj-29" value="" style="group" vertex="1" connectable="0" parent="1">
          <mxGeometry x="513" y="280" width="240" height="50" as="geometry" />
        </mxCell>
        <mxCell id="K4j7y90kipUORQspIOcj-30" value="v3" style="rounded=1;whiteSpace=wrap;html=1;sketch=0;fontSize=24;strokeWidth=2;" vertex="1" parent="K4j7y90kipUORQspIOcj-29">
          <mxGeometry width="100" height="50" as="geometry" />
        </mxCell>
        <mxCell id="K4j7y90kipUORQspIOcj-31" value="v5" style="rounded=1;whiteSpace=wrap;html=1;sketch=0;fontSize=24;strokeWidth=2;" vertex="1" parent="K4j7y90kipUORQspIOcj-29">
          <mxGeometry x="140" width="100" height="50" as="geometry" />
        </mxCell>
        <mxCell id="K4j7y90kipUORQspIOcj-32" style="edgeStyle=orthogonalEdgeStyle;rounded=0;orthogonalLoop=1;jettySize=auto;html=1;entryX=0;entryY=0.5;entryDx=0;entryDy=0;fontSize=24;strokeWidth=2;" edge="1" parent="K4j7y90kipUORQspIOcj-29" source="K4j7y90kipUORQspIOcj-30" target="K4j7y90kipUORQspIOcj-31">
          <mxGeometry relative="1" as="geometry" />
        </mxCell>
        <mxCell id="K4j7y90kipUORQspIOcj-34" value="" style="group" vertex="1" connectable="0" parent="1">
          <mxGeometry x="513" y="458" width="240" height="50" as="geometry" />
        </mxCell>
        <mxCell id="K4j7y90kipUORQspIOcj-35" value="v4" style="rounded=1;whiteSpace=wrap;html=1;sketch=0;fontSize=24;strokeWidth=2;" vertex="1" parent="K4j7y90kipUORQspIOcj-34">
          <mxGeometry width="100" height="50" as="geometry" />
        </mxCell>
        <mxCell id="K4j7y90kipUORQspIOcj-36" value="v6" style="rounded=1;whiteSpace=wrap;html=1;sketch=0;fontSize=24;strokeWidth=2;" vertex="1" parent="K4j7y90kipUORQspIOcj-34">
          <mxGeometry x="140" width="100" height="50" as="geometry" />
        </mxCell>
        <mxCell id="K4j7y90kipUORQspIOcj-37" style="edgeStyle=orthogonalEdgeStyle;rounded=0;orthogonalLoop=1;jettySize=auto;html=1;entryX=0;entryY=0.5;entryDx=0;entryDy=0;fontSize=24;strokeWidth=2;" edge="1" parent="K4j7y90kipUORQspIOcj-34" source="K4j7y90kipUORQspIOcj-35" target="K4j7y90kipUORQspIOcj-36">
          <mxGeometry relative="1" as="geometry" />
        </mxCell>
        <mxCell id="K4j7y90kipUORQspIOcj-39" value="K = N/M" style="text;html=1;align=center;verticalAlign=middle;resizable=0;points=[];autosize=1;strokeColor=none;fillColor=none;fontSize=24;" vertex="1" parent="1">
          <mxGeometry x="129.5" y="410" width="100" height="30" as="geometry" />
        </mxCell>
      </root>
    </mxGraphModel>
  </diagram>
</mxfile>
